<?xml version="1.0" standalone="no"?>
<!DOCTYPE svg PUBLIC "-//W3C//DTD SVG 20010904//EN"
 "http://www.w3.org/TR/2001/REC-SVG-20010904/DTD/svg10.dtd">
<svg version="1.0" xmlns="http://www.w3.org/2000/svg"
 width="500.000000pt" height="500.000000pt" viewBox="0 0 500.000000 500.000000"
 preserveAspectRatio="xMidYMid meet">
<metadata>
Created by potrace 1.11, written by Peter Selinger 2001-2013
</metadata>
<g transform="translate(0.000000,500.000000) scale(0.100000,-0.100000)"
fill="#000000" stroke="none">
<path d="M2330 4778 c-27 -5 -54 -19 -69 -35 -22 -25 -23 -33 -19 -121 l4 -94
-36 -18 c-19 -10 -91 -34 -159 -54 -68 -21 -138 -44 -155 -53 -44 -22 -88 -54
-83 -60 3 -2 90 21 194 52 103 31 195 58 204 61 13 3 15 -5 11 -54 -3 -39 1
-70 12 -96 20 -47 20 -56 2 -56 -8 0 -49 -29 -91 -65 -75 -64 -111 -82 -140
-71 -27 10 -16 -22 19 -57 61 -62 164 -68 244 -14 46 30 77 87 67 124 -5 20
-3 24 9 20 12 -5 16 1 16 23 0 23 -5 30 -19 30 -25 0 -61 46 -61 77 0 27 26
41 43 24 21 -21 30 -11 25 27 -5 38 -5 39 43 61 33 15 59 36 79 66 17 25 36
45 43 45 6 0 34 -11 62 -25 27 -13 58 -26 68 -29 11 -4 17 -15 17 -36 0 -16 5
-30 10 -30 16 0 12 78 -6 111 -8 17 -14 32 -12 34 6 5 407 76 463 82 83 9 66
23 -27 23 -92 0 -230 -19 -354 -48 l-80 -19 -35 65 c-19 36 -46 78 -61 93 -25
27 -30 29 -105 28 -43 -1 -98 -5 -123 -11z"/>
<path d="M3256 4692 c-14 -22 -28 -251 -24 -372 4 -110 8 -132 33 -188 35 -77
103 -142 181 -171 30 -12 61 -21 69 -21 11 0 15 -12 15 -45 0 -37 -5 -51 -27
-71 l-28 -25 43 22 c23 11 49 19 57 15 12 -4 15 5 15 49 0 42 4 55 15 55 8 0
39 9 69 20 76 29 139 88 178 168 l33 67 0 185 c-1 255 -16 372 -40 298 -4 -13
-10 -126 -14 -253 -8 -252 -13 -272 -73 -341 -32 -36 -117 -84 -149 -84 -15 0
-17 32 -22 323 -5 308 -10 377 -27 377 -16 0 -22 -75 -27 -382 -5 -286 -7
-318 -22 -318 -33 0 -117 48 -150 85 -61 69 -64 87 -71 345 -6 216 -16 291
-34 262z"/>
<path d="M263 4574 c-51 -39 -45 -67 30 -136 34 -33 81 -72 103 -88 45 -32
104 -112 104 -142 0 -10 -9 -23 -20 -30 -11 -7 -20 -16 -20 -19 0 -12 92 -39
129 -39 58 0 65 11 69 92 4 90 -5 107 -42 83 -23 -15 -28 -16 -49 -2 -36 24
-85 86 -139 177 -81 139 -104 153 -165 104z"/>
<path d="M2581 4451 c-9 -6 -2 -10 22 -13 29 -3 34 -1 25 9 -12 15 -27 16 -47
4z"/>
<path d="M2454 4424 c-17 -14 -17 -15 -1 -10 10 3 23 6 28 6 5 0 9 5 9 10 0
14 -13 12 -36 -6z"/>
<path d="M2595 4400 c-4 -6 -3 -16 3 -22 6 -6 12 -6 17 2 4 6 3 16 -3 22 -6 6
-12 6 -17 -2z"/>
<path d="M2462 4378 c6 -18 28 -21 28 -4 0 9 -7 16 -16 16 -9 0 -14 -5 -12
-12z"/>
<path d="M2563 4370 c4 -14 7 -28 7 -32 0 -5 7 -8 16 -8 11 0 14 -5 9 -17 -4
-13 -3 -15 5 -7 8 8 4 21 -16 50 -21 31 -25 34 -21 14z"/>
<path d="M2306 4305 c3 -29 12 -45 26 -45 7 0 6 6 -2 15 -8 10 -9 15 -2 15 15
0 4 27 -12 33 -9 4 -12 -3 -10 -18z"/>
<path d="M4184 4322 c-28 -4 -59 -38 -79 -85 l-16 -38 35 -14 c79 -33 140 -9
171 67 14 36 14 38 -7 49 -29 16 -77 25 -104 21z m59 -23 c45 -12 48 -34 11
-78 -20 -24 -34 -31 -63 -31 -20 0 -46 6 -57 14 -19 14 -19 15 -1 49 16 29 45
54 67 56 3 1 22 -4 43 -10z"/>
<path d="M2605 4260 c-11 -5 -40 -9 -65 -10 -45 -2 -45 -2 -15 -12 17 -6 33
-15 36 -21 4 -5 12 -6 19 -2 9 6 9 9 -1 16 -11 7 -11 9 2 9 8 0 24 7 35 15 21
16 18 18 -11 5z"/>
<path d="M2378 4204 c6 -12 22 -28 35 -37 27 -18 107 -41 114 -33 3 3 -16 10
-42 17 -26 7 -64 26 -83 43 -27 24 -33 26 -24 10z"/>
<path d="M940 4180 c0 -5 11 -10 24 -10 12 0 37 -5 54 -11 l31 -11 -19 -38
c-11 -21 -24 -41 -30 -45 -16 -10 -12 -25 5 -19 16 7 49 57 59 90 6 18 0 24
-34 38 -45 18 -90 21 -90 6z"/>
<path d="M1522 4104 c-21 -14 -62 -82 -62 -103 0 -5 19 -16 42 -26 69 -27 122
-6 157 62 19 36 13 53 -24 69 -45 18 -85 18 -113 -2z m121 -23 c17 -17 -19
-77 -55 -92 -22 -9 -38 -9 -69 0 -43 13 -44 13 -28 44 28 53 52 69 97 64 24
-3 49 -10 55 -16z"/>
<path d="M2518 4028 l-3 -33 -18 30 c-15 25 -17 26 -11 6 8 -31 33 -91 38 -91
2 0 4 27 5 60 1 64 -6 82 -11 28z"/>
<path d="M2350 4026 c0 -13 64 -37 85 -32 23 6 43 36 25 36 -6 0 -10 -5 -10
-11 0 -12 -51 -8 -82 6 -10 4 -18 5 -18 1z"/>
<path d="M4709 3981 c-30 -30 -35 -58 -23 -120 7 -36 25 -39 81 -16 46 19 36
31 -13 15 -43 -15 -54 -5 -54 52 0 28 7 42 30 61 17 14 30 28 30 31 0 15 -24
3 -51 -23z"/>
<path d="M2259 3985 l-26 -14 31 -63 c27 -55 31 -72 31 -148 0 -76 -3 -91 -30
-139 -16 -30 -44 -65 -61 -79 l-31 -25 38 -151 c37 -145 38 -153 24 -199 -13
-44 -13 -48 1 -43 8 3 25 1 36 -5 39 -21 98 -82 98 -101 0 -19 -1 -19 -36 3
-36 22 -36 22 -25 1 14 -26 15 -102 1 -102 -6 0 -13 13 -16 29 -7 34 -44 75
-44 49 0 -8 7 -23 15 -34 25 -33 19 -54 -16 -54 -25 0 -32 5 -41 30 -7 22 -14
28 -22 21 -7 -6 -77 -7 -186 -2 -200 8 -215 13 -390 121 -138 86 -202 112
-279 117 -115 8 -249 -49 -400 -171 l-76 -62 -55 18 c-75 23 -138 22 -207 -4
-110 -41 -276 -153 -420 -283 -111 -101 -87 -97 35 5 205 174 367 270 467 278
79 6 142 -17 413 -153 376 -188 408 -195 667 -133 186 45 240 52 320 43 l62
-6 -12 -62 c-7 -34 -21 -111 -31 -172 -15 -93 -23 -117 -51 -156 l-33 -46 0
-167 0 -166 -145 0 -145 0 0 168 0 168 -62 87 c-33 48 -64 87 -67 87 -3 -1
-34 -41 -68 -90 l-63 -89 0 -165 0 -166 -140 0 -140 0 0 163 0 162 -66 93
c-36 50 -70 90 -75 87 -5 -3 -36 -45 -69 -92 l-60 -86 0 -164 0 -163 -140 0
-140 0 0 163 0 164 -65 91 c-37 51 -68 92 -70 92 -2 0 -33 -41 -70 -92 l-65
-91 0 -164 0 -163 -145 0 c-90 0 -145 -4 -145 -10 0 -7 332 -10 975 -10 l975
0 -6 -72 c-3 -40 -7 -79 -10 -85 -3 -10 -201 -13 -949 -13 -628 0 -944 -3
-940 -10 4 -6 57 -10 126 -10 l119 0 0 -222 c0 -127 4 -229 10 -238 6 -10 10
65 10 223 l0 237 115 0 115 0 0 -254 c0 -289 10 -260 -95 -271 -33 -3 -73 -10
-90 -15 -16 -5 -56 -11 -87 -15 -49 -5 -58 -9 -58 -27 0 -17 5 -19 38 -14 20
3 80 11 132 16 52 6 180 22 284 35 104 14 193 25 197 25 4 0 5 9 2 20 -3 11
-6 20 -8 20 -1 0 -69 -9 -150 -20 -82 -11 -150 -18 -153 -15 -8 8 19 13 166
31 l142 18 0 233 0 233 115 0 115 0 0 -378 0 -378 -75 -74 c-50 -50 -76 -69
-79 -59 -2 8 -15 69 -27 137 -20 111 -24 122 -43 122 -11 0 -102 -12 -201 -25
-99 -13 -240 -32 -313 -42 l-133 -17 5 -51 c13 -119 28 -356 23 -361 -10 -10
-112 25 -159 55 -26 16 -60 49 -75 72 -24 37 -28 52 -28 119 0 126 59 213 143
212 23 0 53 -7 67 -15 23 -11 46 -11 168 5 78 10 225 28 327 41 l185 23 -1 37
c-1 21 -3 39 -5 42 -2 2 -54 -3 -114 -11 -61 -8 -193 -26 -295 -40 -242 -32
-251 -34 -246 -43 3 -5 -26 -6 -64 -3 -63 4 -74 2 -109 -21 -26 -18 -48 -45
-68 -84 -24 -50 -28 -70 -28 -143 0 -62 5 -94 18 -117 40 -75 138 -141 238
-163 l56 -13 6 -89 c3 -50 8 -93 11 -96 6 -5 69 2 466 53 271 35 262 33 255
54 -3 11 10 45 35 88 22 39 40 76 40 83 0 7 8 10 20 7 16 -4 20 0 20 21 0 16
56 125 134 262 l133 235 -20 22 c-11 13 -25 23 -31 23 -5 0 -56 -48 -112 -108
l-103 -107 -1 363 0 362 140 0 140 0 0 -217 0 -217 -27 -29 -28 -29 28 -23 27
-24 0 -306 0 -305 -61 0 c-37 0 -58 -4 -54 -10 4 -6 114 -10 296 -10 191 0
288 3 284 10 -3 6 -50 10 -106 10 l-99 0 0 575 0 575 141 0 142 0 -7 -77 c-16
-191 -26 -400 -32 -680 l-7 -303 156 0 c87 0 157 2 157 5 0 12 120 994 125
1023 6 31 7 32 59 32 l53 0 6 -237 c4 -131 12 -370 19 -530 l12 -293 152 0
152 0 6 78 c15 186 26 415 32 688 l7 294 109 0 108 0 0 -575 0 -575 -105 0
c-63 0 -105 -4 -105 -10 0 -6 112 -10 315 -10 l315 0 0 -182 c0 -256 8 -348
30 -348 14 0 18 15 24 92 3 50 6 169 6 265 l0 173 349 0 c223 0 352 4 356 10
4 6 -10 10 -34 10 l-41 0 0 90 c0 50 3 90 7 90 4 0 43 -11 87 -24 107 -33 222
-56 270 -56 58 0 38 10 -49 25 -98 17 -310 86 -398 129 -37 18 -70 29 -73 25
-6 -11 40 -45 91 -66 l45 -18 0 -97 0 -98 -140 0 -140 0 0 575 0 575 140 0
140 0 0 -29 c0 -24 8 -34 45 -55 102 -60 362 -148 552 -186 133 -26 180 -26
188 0 3 11 3 24 0 30 -8 14 -129 74 -201 101 -31 12 -67 27 -82 35 -14 7 -72
26 -129 41 -81 22 -103 32 -103 46 0 15 13 17 130 17 80 0 130 4 130 10 0 7
-197 10 -570 10 l-570 0 0 85 0 85 585 0 c383 0 585 3 585 10 0 6 -55 10 -145
10 l-145 0 0 163 0 164 -66 92 c-36 51 -70 89 -75 84 -4 -4 -35 -46 -68 -93
l-61 -85 0 -162 0 -163 -140 0 -140 0 0 165 0 165 -61 85 c-34 47 -65 87 -69
90 -5 3 -36 -34 -69 -82 l-61 -87 0 -168 0 -168 -35 0 -35 0 0 394 0 394 93
16 c50 9 145 20 210 26 163 13 199 30 341 168 123 120 183 165 266 199 128 53
236 9 304 -125 25 -48 31 -32 8 20 -23 53 -96 121 -147 138 -82 27 -199 -10
-316 -101 -29 -23 -97 -84 -150 -135 -125 -122 -148 -132 -347 -150 -87 -8
-175 -18 -197 -24 -22 -5 -46 -10 -52 -10 -10 0 -13 98 -13 460 0 404 -2 459
-15 454 -8 -4 -23 -3 -32 1 -16 7 -14 9 7 15 24 6 24 7 -8 12 -28 4 -32 2 -25
-11 4 -9 9 -226 11 -483 l2 -466 -92 -32 c-92 -32 -96 -33 -338 -40 -135 -4
-245 -7 -246 -6 0 1 -8 75 -18 166 -9 91 -24 213 -32 272 -16 105 -15 108 9
220 13 62 30 146 37 185 l13 73 -36 78 c-25 52 -41 105 -49 160 -11 82 -12 84
-54 112 l-42 29 9 -37 c5 -20 9 -70 9 -109 l0 -73 -160 0 -160 0 -5 28 c-19
90 -28 119 -50 163 -30 58 -33 61 -66 44z m320 -369 c18 -19 29 -23 60 -19 54
7 76 -8 90 -62 14 -55 7 -73 -20 -49 -19 17 -19 17 -17 -17 3 -28 0 -34 -17
-34 -15 0 -21 8 -23 33 -4 36 -17 42 -27 12 -4 -11 -15 -20 -27 -20 -18 0 -19
4 -13 50 6 43 4 51 -12 56 -25 9 -52 45 -46 61 8 20 27 16 52 -11z m-1172
-451 c28 -8 111 -52 184 -96 193 -117 203 -120 404 -130 94 -4 173 -8 176 -8
4 -1 -2 -38 -12 -83 -10 -46 -19 -87 -19 -91 0 -5 -26 -6 -58 -2 -74 8 -175
-6 -366 -51 -174 -41 -210 -40 -334 5 -43 15 -175 78 -293 138 l-215 110 69
54 c186 146 329 194 464 154z m2123 -820 l0 -385 -80 0 -80 0 0 166 0 165 -62
89 c-35 49 -66 88 -71 87 -4 -1 -34 -40 -67 -87 l-60 -85 0 -148 0 -148 -112
94 -113 93 -8 120 c-4 65 -10 170 -15 232 -4 61 -7 112 -7 113 0 1 110 5 245
9 238 7 247 8 330 38 47 17 88 31 93 31 4 1 7 -172 7 -384z m-2976 16 l56 -79
0 -161 0 -161 -115 0 -115 0 0 161 0 160 57 80 c31 43 58 79 59 79 1 0 28 -36
58 -79z m555 -7 l51 -72 0 -161 0 -161 -115 0 -115 0 0 161 0 161 56 80 c31
44 60 76 64 71 4 -4 30 -40 59 -79z m544 5 l47 -67 0 -166 0 -166 -110 0 -110
0 0 163 0 163 56 78 c31 42 60 74 64 69 4 -4 28 -38 53 -74z m1647 -1 l50 -72
0 -163 0 -163 -110 0 -110 0 0 166 0 165 52 74 c29 40 56 71 60 69 4 -3 30
-37 58 -76z m544 5 l56 -77 0 -163 0 -163 -115 0 -115 0 0 160 0 159 57 81
c32 44 58 80 60 80 1 0 27 -35 57 -77z m550 -2 l56 -79 0 -161 0 -161 -115 0
-115 0 0 161 0 160 57 80 c31 43 58 79 59 79 1 0 28 -36 58 -79z m-1901 -198
l5 -203 -37 0 -36 0 24 210 c14 115 28 206 32 202 4 -4 9 -98 12 -209z m-442
37 l-19 -135 -1 108 c-1 86 3 115 16 138 9 15 18 27 20 26 1 -2 -6 -63 -16
-137z m957 -140 c56 -47 102 -88 102 -92 0 -4 -49 -8 -110 -8 l-110 0 0 39 c0
21 -3 67 -7 102 -5 54 -4 62 8 53 8 -6 60 -48 117 -94z m-508 -205 l0 -85 -51
0 c-50 0 -51 0 -45 28 2 15 8 53 11 85 l6 57 40 0 39 0 0 -85z m1030 0 l0 -85
-320 0 -320 0 0 85 0 85 320 0 320 0 0 -85z m-2620 -312 l-1 -208 -22 36 c-53
85 -102 126 -157 131 l-34 3 -28 -100 c-16 -55 -30 -104 -32 -110 -3 -5 -5 95
-5 223 l-1 232 140 0 140 0 0 -207z m790 -368 l0 -575 -110 0 -110 0 0 326 c0
214 4 332 11 345 8 16 7 25 -3 37 -11 14 -13 61 -10 230 l4 212 109 0 109 0 0
-575z m1650 0 l0 -575 -110 0 -110 0 0 575 0 575 110 0 110 0 0 -575z m180 0
l0 -575 -80 0 -80 0 0 575 0 575 80 0 80 0 0 -575z m130 0 l0 -575 -35 0 -35
0 0 575 0 575 35 0 35 0 0 -575z m240 0 l0 -575 -115 0 -115 0 0 575 0 575
115 0 115 0 0 -575z m550 560 c0 -11 -7 -14 -22 -10 -13 3 -41 9 -63 14 -39 9
-38 9 23 10 49 1 62 -2 62 -14z"/>
<path d="M2642 3545 c0 -16 2 -22 5 -12 2 9 2 23 0 30 -3 6 -5 -1 -5 -18z"/>
<path d="M2692 3545 c0 -16 2 -22 5 -12 2 9 2 23 0 30 -3 6 -5 -1 -5 -18z"/>
<path d="M3513 3790 c-13 -5 -23 -12 -23 -15 0 -9 16 -5 36 10 22 16 19 18
-13 5z"/>
<path d="M3525 3750 l-30 -8 30 -1 c17 0 37 4 45 9 13 9 13 10 0 9 -8 -1 -28
-5 -45 -9z"/>
<path d="M3481 3653 c-1 -17 -3 -38 -6 -45 -4 -9 2 -14 13 -14 17 0 18 4 10
36 -14 54 -16 57 -17 23z"/>
<path d="M4168 3648 c-52 -14 -88 -59 -88 -109 0 -61 14 -80 53 -72 45 8 83
32 96 60 14 30 14 88 1 114 -12 21 -10 21 -62 7z m52 -61 c0 -24 -7 -52 -15
-64 -16 -22 -81 -47 -97 -37 -13 8 -10 88 5 107 13 19 87 48 99 40 5 -2 8 -23
8 -46z"/>
<path d="M3420 3624 c-6 -14 -10 -32 -10 -40 0 -22 55 -74 77 -73 16 0 16 1
-2 8 -40 17 -58 48 -52 91 6 46 1 52 -13 14z"/>
<path d="M863 3607 c-51 -52 -58 -82 -31 -135 36 -71 51 -75 98 -25 55 58 51
111 -12 170 l-24 23 -31 -33z m70 -37 c24 -42 19 -75 -17 -117 -21 -24 -26
-26 -41 -13 -26 22 -47 70 -41 94 8 33 46 77 63 74 8 -2 24 -19 36 -38z"/>
<path d="M3103 3505 l-28 -25 38 20 c21 10 45 16 52 14 7 -3 16 -1 20 5 13 22
-54 11 -82 -14z"/>
<path d="M3138 3493 c-24 -28 -38 -60 -37 -85 1 -21 1 -21 9 4 4 15 18 44 30
63 23 38 22 46 -2 18z"/>
<path d="M1993 3419 c10 -30 -6 -39 -52 -28 -75 17 -80 4 -6 -14 39 -9 73 -17
78 -17 13 0 7 36 -9 56 -11 14 -14 15 -11 3z"/>
<path d="M1960 3410 c20 -13 33 -13 25 0 -3 6 -14 10 -23 10 -15 0 -15 -2 -2
-10z"/>
<path d="M217 3123 c-14 -13 -6 -18 26 -18 30 0 32 -2 35 -38 4 -51 -18 -83
-68 -98 -22 -7 -40 -16 -40 -21 0 -12 15 -10 60 8 59 24 83 80 64 152 -5 17
-14 22 -38 22 -18 0 -36 -3 -39 -7z"/>
<path d="M2132 3113 c-16 -6 -42 -56 -42 -80 1 -10 7 -3 16 17 8 19 25 43 37
52 21 17 16 22 -11 11z"/>
<path d="M3110 3020 c-71 -17 -108 -92 -80 -164 8 -22 14 -25 42 -19 89 16
126 79 102 171 -7 24 -10 24 -64 12z m48 -59 c2 -25 -3 -52 -11 -65 -19 -28
-88 -51 -99 -33 -9 15 -10 69 -1 92 6 18 81 57 98 51 6 -1 11 -22 13 -45z"/>
<path d="M4133 2650 c-39 -23 -53 -48 -53 -92 0 -55 10 -78 34 -78 33 1 103
36 115 58 12 23 14 74 5 110 -8 29 -56 30 -101 2z m85 -43 c4 -49 -17 -82 -62
-97 -47 -15 -56 -8 -56 45 0 36 5 47 31 70 21 17 41 25 58 23 22 -3 26 -8 29
-41z"/>
<path d="M4195 1671 c-3 -2 -5 -17 -5 -32 0 -28 -17 -49 -77 -96 -46 -36 -93
-110 -93 -149 0 -17 9 -42 19 -55 19 -23 20 -23 15 -2 -8 31 20 83 72 134 40
39 45 41 40 19 -18 -81 -35 -205 -28 -211 23 -22 146 -52 232 -56 143 -7 261
28 398 118 24 16 31 17 26 6 -3 -9 -1 -25 5 -36 10 -17 6 -24 -31 -49 -60 -41
-94 -57 -168 -81 -150 -48 -289 -46 -413 4 -34 13 -63 22 -65 20 -3 -3 -51
-275 -52 -296 0 -9 71 -46 154 -79 99 -39 300 -90 367 -93 l50 -2 155 335 c85
184 156 342 159 350 4 12 -17 18 -104 33 -165 26 -410 104 -559 177 -51 25
-95 44 -97 41z m665 -310 c0 -25 -27 -48 -41 -34 -8 8 -7 17 0 32 14 26 41 28
41 2z"/>
<path d="M2310 590 c0 -6 38 -10 95 -10 57 0 95 4 95 10 0 6 -38 10 -95 10
-57 0 -95 -4 -95 -10z"/>
<path d="M1991 463 c13 -104 9 -206 -10 -280 l-19 -73 129 0 c97 0 129 3 129
13 0 6 -7 37 -16 67 -11 39 -15 95 -14 193 l1 137 -103 0 -104 0 7 -57z"/>
<path d="M2586 373 c5 -82 7 -174 6 -206 l-3 -57 220 0 c122 0 221 3 221 6 0
4 -9 21 -20 39 -23 36 -50 50 -129 65 -85 16 -85 15 -78 167 l7 133 -116 0
-116 0 8 -147z"/>
</g>
</svg>
